<mxfile host="app.diagrams.net" modified="2021-07-20T00:00:16.159Z" agent="5.0 (Windows NT 10.0; Win64; x64) AppleWebKit/537.36 (KHTML, like Gecko) Chrome/91.0.4472.124 Safari/537.36" etag="tth65njfzjGjGyIzZOTt" version="14.9.0" type="github">
  <diagram id="LwGWcUwIZz-kHJYDNQQQ" name="Page-1">
    <mxGraphModel dx="1107" dy="456" grid="0" gridSize="10" guides="1" tooltips="1" connect="1" arrows="1" fold="1" page="1" pageScale="1" pageWidth="1654" pageHeight="1169" background="#ffffff" math="0" shadow="1">
      <root>
        <mxCell id="0" />
        <mxCell id="1" parent="0" />
        <mxCell id="NihVeoa68JLCoDh2yQRc-1" value="Elementos de BPM" style="text;html=1;align=center;verticalAlign=middle;resizable=0;points=[];autosize=1;strokeColor=none;" parent="1" vertex="1">
          <mxGeometry x="90" y="34" width="112" height="18" as="geometry" />
        </mxCell>
        <mxCell id="NihVeoa68JLCoDh2yQRc-2" value="Actividades o &#xa;Tareas" style="points=[[0.25,0,0],[0.5,0,0],[0.75,0,0],[1,0.25,0],[1,0.5,0],[1,0.75,0],[0.75,1,0],[0.5,1,0],[0.25,1,0],[0,0.75,0],[0,0.5,0],[0,0.25,0]];shape=mxgraph.bpmn.task;whiteSpace=wrap;rectStyle=rounded;size=10;taskMarker=abstract;" parent="1" vertex="1">
          <mxGeometry x="48" y="136" width="120" height="80" as="geometry" />
        </mxCell>
        <mxCell id="NihVeoa68JLCoDh2yQRc-3" value="Eventos" style="points=[[0.145,0.145,0],[0.5,0,0],[0.855,0.145,0],[1,0.5,0],[0.855,0.855,0],[0.5,1,0],[0.145,0.855,0],[0,0.5,0]];shape=mxgraph.bpmn.event;html=1;verticalLabelPosition=bottom;labelBackgroundColor=#ffffff;verticalAlign=top;align=center;perimeter=ellipsePerimeter;outlineConnect=0;aspect=fixed;outline=standard;symbol=general;" parent="1" vertex="1">
          <mxGeometry x="433" y="151" width="50" height="50" as="geometry" />
        </mxCell>
        <mxCell id="NihVeoa68JLCoDh2yQRc-5" value="XOR Gateway" style="points=[[0.25,0.25,0],[0.5,0,0],[0.75,0.25,0],[1,0.5,0],[0.75,0.75,0],[0.5,1,0],[0.25,0.75,0],[0,0.5,0]];shape=mxgraph.bpmn.gateway2;html=1;verticalLabelPosition=bottom;labelBackgroundColor=#ffffff;verticalAlign=top;align=center;perimeter=rhombusPerimeter;outlineConnect=0;outline=none;symbol=none;gwType=exclusive;" parent="1" vertex="1">
          <mxGeometry x="223" y="151" width="50" height="50" as="geometry" />
        </mxCell>
        <mxCell id="NihVeoa68JLCoDh2yQRc-6" value="" style="edgeStyle=elbowEdgeStyle;fontSize=12;html=1;endArrow=blockThin;endFill=1;" parent="1" edge="1">
          <mxGeometry width="160" relative="1" as="geometry">
            <mxPoint x="509" y="175.5" as="sourcePoint" />
            <mxPoint x="669" y="175.5" as="targetPoint" />
          </mxGeometry>
        </mxCell>
        <mxCell id="NihVeoa68JLCoDh2yQRc-7" value="Secuence Flow" style="edgeLabel;html=1;align=center;verticalAlign=middle;resizable=0;points=[];" parent="NihVeoa68JLCoDh2yQRc-6" vertex="1" connectable="0">
          <mxGeometry x="-0.4775" y="-1" relative="1" as="geometry">
            <mxPoint x="30" y="10" as="offset" />
          </mxGeometry>
        </mxCell>
        <mxCell id="NihVeoa68JLCoDh2yQRc-13" style="edgeStyle=orthogonalEdgeStyle;rounded=0;orthogonalLoop=1;jettySize=auto;html=1;exitX=1;exitY=0.5;exitDx=0;exitDy=0;exitPerimeter=0;" parent="1" source="NihVeoa68JLCoDh2yQRc-8" target="NihVeoa68JLCoDh2yQRc-10" edge="1">
          <mxGeometry relative="1" as="geometry" />
        </mxCell>
        <mxCell id="NihVeoa68JLCoDh2yQRc-8" value="Login" style="points=[[0.145,0.145,0],[0.5,0,0],[0.855,0.145,0],[1,0.5,0],[0.855,0.855,0],[0.5,1,0],[0.145,0.855,0],[0,0.5,0]];shape=mxgraph.bpmn.event;html=1;verticalLabelPosition=bottom;labelBackgroundColor=#ffffff;verticalAlign=top;align=center;perimeter=ellipsePerimeter;outlineConnect=0;aspect=fixed;outline=standard;symbol=general;" parent="1" vertex="1">
          <mxGeometry x="161" y="404" width="50" height="50" as="geometry" />
        </mxCell>
        <mxCell id="NihVeoa68JLCoDh2yQRc-9" value="Buying an item on Amazon" style="text;html=1;align=left;verticalAlign=middle;resizable=0;points=[];autosize=1;strokeColor=none;" parent="1" vertex="1">
          <mxGeometry x="157" y="307" width="152" height="18" as="geometry" />
        </mxCell>
        <mxCell id="NihVeoa68JLCoDh2yQRc-12" value="" style="edgeStyle=orthogonalEdgeStyle;rounded=0;orthogonalLoop=1;jettySize=auto;html=1;" parent="1" source="NihVeoa68JLCoDh2yQRc-10" target="NihVeoa68JLCoDh2yQRc-11" edge="1">
          <mxGeometry relative="1" as="geometry" />
        </mxCell>
        <mxCell id="NihVeoa68JLCoDh2yQRc-10" value="Search desired product" style="points=[[0.25,0,0],[0.5,0,0],[0.75,0,0],[1,0.25,0],[1,0.5,0],[1,0.75,0],[0.75,1,0],[0.5,1,0],[0.25,1,0],[0,0.75,0],[0,0.5,0],[0,0.25,0]];shape=mxgraph.bpmn.task;whiteSpace=wrap;rectStyle=rounded;size=10;taskMarker=abstract;" parent="1" vertex="1">
          <mxGeometry x="305" y="389" width="120" height="80" as="geometry" />
        </mxCell>
        <mxCell id="NihVeoa68JLCoDh2yQRc-16" style="edgeStyle=orthogonalEdgeStyle;rounded=0;orthogonalLoop=1;jettySize=auto;html=1;exitX=1;exitY=0.5;exitDx=0;exitDy=0;exitPerimeter=0;" parent="1" source="NihVeoa68JLCoDh2yQRc-11" target="NihVeoa68JLCoDh2yQRc-14" edge="1">
          <mxGeometry relative="1" as="geometry" />
        </mxCell>
        <mxCell id="NihVeoa68JLCoDh2yQRc-11" value="Add product to cart" style="points=[[0.25,0,0],[0.5,0,0],[0.75,0,0],[1,0.25,0],[1,0.5,0],[1,0.75,0],[0.75,1,0],[0.5,1,0],[0.25,1,0],[0,0.75,0],[0,0.5,0],[0,0.25,0]];shape=mxgraph.bpmn.task;whiteSpace=wrap;rectStyle=rounded;size=10;taskMarker=abstract;" parent="1" vertex="1">
          <mxGeometry x="505" y="389" width="120" height="80" as="geometry" />
        </mxCell>
        <mxCell id="NihVeoa68JLCoDh2yQRc-17" style="edgeStyle=orthogonalEdgeStyle;rounded=0;orthogonalLoop=1;jettySize=auto;html=1;exitX=0.5;exitY=0;exitDx=0;exitDy=0;exitPerimeter=0;entryX=0;entryY=0.5;entryDx=0;entryDy=0;entryPerimeter=0;" parent="1" source="NihVeoa68JLCoDh2yQRc-14" target="NihVeoa68JLCoDh2yQRc-36" edge="1">
          <mxGeometry relative="1" as="geometry">
            <mxPoint x="885" y="239.9999999999999" as="targetPoint" />
          </mxGeometry>
        </mxCell>
        <mxCell id="NihVeoa68JLCoDh2yQRc-18" value="Yes" style="edgeLabel;html=1;align=center;verticalAlign=middle;resizable=0;points=[];" parent="NihVeoa68JLCoDh2yQRc-17" vertex="1" connectable="0">
          <mxGeometry x="-0.1776" y="-3" relative="1" as="geometry">
            <mxPoint x="-3" y="45" as="offset" />
          </mxGeometry>
        </mxCell>
        <mxCell id="NihVeoa68JLCoDh2yQRc-22" value="No" style="edgeStyle=orthogonalEdgeStyle;rounded=0;orthogonalLoop=1;jettySize=auto;html=1;entryX=0.5;entryY=0;entryDx=0;entryDy=0;entryPerimeter=0;" parent="1" source="NihVeoa68JLCoDh2yQRc-14" target="NihVeoa68JLCoDh2yQRc-23" edge="1">
          <mxGeometry relative="1" as="geometry">
            <mxPoint x="748" y="529" as="targetPoint" />
          </mxGeometry>
        </mxCell>
        <mxCell id="NihVeoa68JLCoDh2yQRc-14" value="Continue shopping" style="points=[[0.25,0.25,0],[0.5,0,0],[0.75,0.25,0],[1,0.5,0],[0.75,0.75,0],[0.5,1,0],[0.25,0.75,0],[0,0.5,0]];shape=mxgraph.bpmn.gateway2;html=1;verticalLabelPosition=bottom;labelBackgroundColor=#ffffff;verticalAlign=top;align=center;perimeter=rhombusPerimeter;outlineConnect=0;outline=none;symbol=none;gwType=exclusive;" parent="1" vertex="1">
          <mxGeometry x="723" y="404" width="50" height="50" as="geometry" />
        </mxCell>
        <mxCell id="NihVeoa68JLCoDh2yQRc-25" value="" style="edgeStyle=orthogonalEdgeStyle;rounded=0;orthogonalLoop=1;jettySize=auto;html=1;entryX=0;entryY=0.5;entryDx=0;entryDy=0;entryPerimeter=0;" parent="1" source="NihVeoa68JLCoDh2yQRc-23" target="NihVeoa68JLCoDh2yQRc-27" edge="1">
          <mxGeometry relative="1" as="geometry">
            <mxPoint x="887.9999999999995" y="582" as="targetPoint" />
          </mxGeometry>
        </mxCell>
        <mxCell id="NihVeoa68JLCoDh2yQRc-23" value="Proceed to checkout" style="points=[[0.25,0,0],[0.5,0,0],[0.75,0,0],[1,0.25,0],[1,0.5,0],[1,0.75,0],[0.75,1,0],[0.5,1,0],[0.25,1,0],[0,0.75,0],[0,0.5,0],[0,0.25,0]];shape=mxgraph.bpmn.task;whiteSpace=wrap;rectStyle=rounded;size=10;taskMarker=abstract;" parent="1" vertex="1">
          <mxGeometry x="688" y="542" width="120" height="80" as="geometry" />
        </mxCell>
        <mxCell id="NihVeoa68JLCoDh2yQRc-29" style="edgeStyle=orthogonalEdgeStyle;rounded=0;orthogonalLoop=1;jettySize=auto;html=1;exitX=1;exitY=0.5;exitDx=0;exitDy=0;exitPerimeter=0;" parent="1" source="NihVeoa68JLCoDh2yQRc-27" target="NihVeoa68JLCoDh2yQRc-28" edge="1">
          <mxGeometry relative="1" as="geometry" />
        </mxCell>
        <mxCell id="NihVeoa68JLCoDh2yQRc-27" value="Choose shipping option" style="points=[[0.25,0,0],[0.5,0,0],[0.75,0,0],[1,0.25,0],[1,0.5,0],[1,0.75,0],[0.75,1,0],[0.5,1,0],[0.25,1,0],[0,0.75,0],[0,0.5,0],[0,0.25,0]];shape=mxgraph.bpmn.task;whiteSpace=wrap;rectStyle=rounded;size=10;taskMarker=abstract;" parent="1" vertex="1">
          <mxGeometry x="882" y="542" width="120" height="80" as="geometry" />
        </mxCell>
        <mxCell id="NihVeoa68JLCoDh2yQRc-31" style="edgeStyle=orthogonalEdgeStyle;rounded=0;orthogonalLoop=1;jettySize=auto;html=1;" parent="1" source="NihVeoa68JLCoDh2yQRc-28" target="NihVeoa68JLCoDh2yQRc-30" edge="1">
          <mxGeometry relative="1" as="geometry" />
        </mxCell>
        <mxCell id="NihVeoa68JLCoDh2yQRc-28" value="Choose payment option" style="points=[[0.25,0,0],[0.5,0,0],[0.75,0,0],[1,0.25,0],[1,0.5,0],[1,0.75,0],[0.75,1,0],[0.5,1,0],[0.25,1,0],[0,0.75,0],[0,0.5,0],[0,0.25,0]];shape=mxgraph.bpmn.task;whiteSpace=wrap;rectStyle=rounded;size=10;taskMarker=abstract;" parent="1" vertex="1">
          <mxGeometry x="1075" y="542" width="120" height="80" as="geometry" />
        </mxCell>
        <mxCell id="NihVeoa68JLCoDh2yQRc-34" style="edgeStyle=orthogonalEdgeStyle;rounded=0;orthogonalLoop=1;jettySize=auto;html=1;exitX=1;exitY=0.5;exitDx=0;exitDy=0;exitPerimeter=0;entryX=0;entryY=0.5;entryDx=0;entryDy=0;entryPerimeter=0;" parent="1" source="NihVeoa68JLCoDh2yQRc-30" target="NihVeoa68JLCoDh2yQRc-33" edge="1">
          <mxGeometry relative="1" as="geometry" />
        </mxCell>
        <mxCell id="NihVeoa68JLCoDh2yQRc-30" value="Confirm billing details" style="points=[[0.25,0,0],[0.5,0,0],[0.75,0,0],[1,0.25,0],[1,0.5,0],[1,0.75,0],[0.75,1,0],[0.5,1,0],[0.25,1,0],[0,0.75,0],[0,0.5,0],[0,0.25,0]];shape=mxgraph.bpmn.task;whiteSpace=wrap;rectStyle=rounded;size=10;taskMarker=abstract;" parent="1" vertex="1">
          <mxGeometry x="1262" y="542" width="120" height="80" as="geometry" />
        </mxCell>
        <mxCell id="NihVeoa68JLCoDh2yQRc-33" value="Order completed" style="points=[[0.145,0.145,0],[0.5,0,0],[0.855,0.145,0],[1,0.5,0],[0.855,0.855,0],[0.5,1,0],[0.145,0.855,0],[0,0.5,0]];shape=mxgraph.bpmn.event;html=1;verticalLabelPosition=bottom;labelBackgroundColor=#ffffff;verticalAlign=top;align=center;perimeter=ellipsePerimeter;outlineConnect=0;aspect=fixed;outline=end;symbol=terminate2;" parent="1" vertex="1">
          <mxGeometry x="1449" y="557" width="50" height="50" as="geometry" />
        </mxCell>
        <mxCell id="NihVeoa68JLCoDh2yQRc-36" value="Continue browsing in Amazon" style="points=[[0.145,0.145,0],[0.5,0,0],[0.855,0.145,0],[1,0.5,0],[0.855,0.855,0],[0.5,1,0],[0.145,0.855,0],[0,0.5,0]];shape=mxgraph.bpmn.event;html=1;verticalLabelPosition=bottom;labelBackgroundColor=#ffffff;verticalAlign=top;align=center;perimeter=ellipsePerimeter;outlineConnect=0;aspect=fixed;outline=end;symbol=terminate2;" parent="1" vertex="1">
          <mxGeometry x="860" y="289" width="50" height="50" as="geometry" />
        </mxCell>
        <mxCell id="hpbx9H6NkIc-GcVU2CrY-1" value="" style="edgeStyle=elbowEdgeStyle;fontSize=12;html=1;endArrow=blockThin;endFill=1;startArrow=diamondThin;startFill=0;endSize=6;startSize=10;" edge="1" parent="1">
          <mxGeometry width="160" relative="1" as="geometry">
            <mxPoint x="715" y="175.5" as="sourcePoint" />
            <mxPoint x="875" y="175.5" as="targetPoint" />
          </mxGeometry>
        </mxCell>
        <mxCell id="hpbx9H6NkIc-GcVU2CrY-4" value="Conditional secuence flow" style="edgeLabel;html=1;align=center;verticalAlign=middle;resizable=0;points=[];" vertex="1" connectable="0" parent="hpbx9H6NkIc-GcVU2CrY-1">
          <mxGeometry x="-0.2625" relative="1" as="geometry">
            <mxPoint x="18" y="13" as="offset" />
          </mxGeometry>
        </mxCell>
        <mxCell id="hpbx9H6NkIc-GcVU2CrY-2" value="" style="edgeStyle=elbowEdgeStyle;fontSize=12;html=1;endArrow=blockThin;endFill=1;startArrow=dash;startFill=0;endSize=6;startSize=6;" edge="1" parent="1">
          <mxGeometry width="160" relative="1" as="geometry">
            <mxPoint x="964" y="175.5" as="sourcePoint" />
            <mxPoint x="1124" y="175.5" as="targetPoint" />
          </mxGeometry>
        </mxCell>
        <mxCell id="hpbx9H6NkIc-GcVU2CrY-3" value="Default secuence flow" style="edgeLabel;html=1;align=center;verticalAlign=middle;resizable=0;points=[];" vertex="1" connectable="0" parent="hpbx9H6NkIc-GcVU2CrY-2">
          <mxGeometry x="-0.4" y="-4" relative="1" as="geometry">
            <mxPoint x="32" y="5" as="offset" />
          </mxGeometry>
        </mxCell>
        <mxCell id="hpbx9H6NkIc-GcVU2CrY-6" value="AND Gateway" style="points=[[0.25,0.25,0],[0.5,0,0],[0.75,0.25,0],[1,0.5,0],[0.75,0.75,0],[0.5,1,0],[0.25,0.75,0],[0,0.5,0]];shape=mxgraph.bpmn.gateway2;html=1;verticalLabelPosition=bottom;labelBackgroundColor=#ffffff;verticalAlign=top;align=center;perimeter=rhombusPerimeter;outlineConnect=0;outline=none;symbol=none;gwType=parallel;" vertex="1" parent="1">
          <mxGeometry x="328" y="151" width="50" height="50" as="geometry" />
        </mxCell>
        <mxCell id="hpbx9H6NkIc-GcVU2CrY-7" value="OR Gateway" style="points=[[0.25,0.25,0],[0.5,0,0],[0.75,0.25,0],[1,0.5,0],[0.75,0.75,0],[0.5,1,0],[0.25,0.75,0],[0,0.5,0]];shape=mxgraph.bpmn.gateway2;html=1;verticalLabelPosition=bottom;labelBackgroundColor=#ffffff;verticalAlign=top;align=center;perimeter=rhombusPerimeter;outlineConnect=0;outline=end;symbol=general;" vertex="1" parent="1">
          <mxGeometry x="273" y="65" width="50" height="50" as="geometry" />
        </mxCell>
        <mxCell id="hpbx9H6NkIc-GcVU2CrY-9" value="ARTEFECTOS: Representan la DATA" style="text;html=1;align=left;verticalAlign=middle;resizable=0;points=[];autosize=1;strokeColor=none;" vertex="1" parent="1">
          <mxGeometry x="124" y="631" width="212" height="18" as="geometry" />
        </mxCell>
      </root>
    </mxGraphModel>
  </diagram>
</mxfile>
